<?xml version="1.0" standalone="no"?>
<!DOCTYPE svg PUBLIC "-//W3C//DTD SVG 20010904//EN"
 "http://www.w3.org/TR/2001/REC-SVG-20010904/DTD/svg10.dtd">
<svg version="1.0" xmlns="http://www.w3.org/2000/svg"
 width="500.000000pt" height="500.000000pt" viewBox="0 0 500.000000 500.000000"
 preserveAspectRatio="xMidYMid meet">

<g transform="translate(0.000000,500.000000) scale(0.100000,-0.100000)"
fill="#000000" stroke="none">
<path d="M0 2500 l0 -2500 2500 0 2500 0 0 2500 0 2500 -2500 0 -2500 0 0
-2500z m3106 422 c42 -28 19 -99 -157 -489 -38 -84 -69 -155 -69 -158 0 -7
150 -6 177 1 12 3 27 20 34 37 18 48 279 571 290 581 5 5 12 7 16 3 3 -4 -60
-141 -140 -306 -81 -164 -147 -300 -147 -303 0 -3 112 -8 249 -12 l249 -7 54
27 53 28 -34 7 c-19 4 -44 3 -57 -3 -17 -8 -27 -8 -39 2 -12 10 -19 10 -27 2
-19 -19 -58 -15 -58 6 1 46 110 114 110 68 0 -9 -7 -12 -18 -9 -10 2 -27 -6
-41 -21 -31 -32 -23 -43 12 -16 33 26 50 26 42 0 -11 -34 22 -24 47 15 26 38
55 55 98 55 34 0 35 -4 15 -40 -28 -49 -17 -53 50 -16 68 37 105 45 105 23 0
-20 -22 -37 -47 -37 -14 0 -23 -6 -23 -15 0 -23 42 -18 80 10 40 29 41 30 33
10 -16 -42 -130 -63 -140 -25 -5 19 -5 19 -44 0 -32 -17 -44 -33 -77 -103 -22
-46 -50 -91 -63 -100 -55 -39 -181 -6 -153 40 6 10 27 29 47 42 27 18 34 27
25 33 -22 14 -454 10 -465 -4 -6 -7 -38 -76 -72 -153 -65 -145 -75 -163 -84
-148 -3 5 24 76 59 157 36 81 63 150 61 153 -3 2 -47 1 -99 -3 l-95 -6 -66
-134 c-45 -89 -72 -134 -83 -134 -22 0 -14 29 42 148 24 52 44 99 44 105 0 9
-53 5 -134 -10 -23 -4 -28 -3 -21 6 6 6 47 16 91 22 l81 12 60 111 c75 138
200 426 209 483 9 59 -9 63 -93 19 -217 -116 -523 -403 -523 -491 0 -12 9 -30
20 -40 17 -15 31 -17 92 -12 40 4 84 9 98 12 14 2 -2 -4 -35 -16 -43 -14 -77
-19 -119 -16 -71 4 -90 23 -83 80 20 151 571 592 663 529z m-1065 -63 c66 -14
105 -49 89 -79 -23 -43 -122 -88 -429 -194 -113 -39 -206 -76 -208 -82 -2 -7
28 -13 85 -17 158 -11 252 -53 252 -111 0 -30 -87 -107 -165 -147 l-70 -36
285 -11 c261 -11 629 -38 639 -48 11 -11 -15 -11 -145 2 -185 17 -524 34 -699
34 -125 0 -151 -3 -241 -29 -182 -53 -375 -67 -382 -29 -2 12 7 20 35 27 59
16 175 31 314 39 116 8 132 11 204 45 101 48 169 99 186 138 12 30 11 33 -14
55 -30 26 -140 52 -237 56 l-65 3 -62 -120 c-34 -66 -64 -124 -66 -130 -2 -5
-8 -7 -12 -3 -5 4 17 62 48 128 32 66 57 123 57 125 0 3 -9 5 -20 5 -31 0 -23
18 17 37 29 15 45 35 84 108 45 85 69 114 69 83 0 -7 -18 -46 -39 -85 -23 -43
-34 -73 -26 -73 20 0 353 116 447 155 94 40 141 75 132 99 -8 20 -75 43 -147
50 -148 15 -436 -40 -591 -112 -47 -23 -86 -36 -86 -31 0 29 252 117 392 138
40 6 84 13 98 15 58 8 223 5 271 -5z m304 -374 c-19 -43 -35 -82 -35 -87 0 -4
14 -2 30 7 17 9 30 11 30 6 0 -5 -16 -16 -36 -26 -19 -9 -33 -22 -31 -28 5
-16 61 -11 98 8 16 9 29 12 29 7 0 -19 -79 -45 -119 -39 -34 4 -40 2 -50 -19
-15 -33 -33 -32 -21 1 9 23 8 25 -9 15 -29 -15 -51 -12 -51 6 0 13 -5 12 -26
-5 -32 -25 -64 -27 -64 -5 0 12 -5 14 -17 9 -10 -4 -27 -8 -38 -9 -16 -1 -19
4 -17 28 4 32 3 32 -51 -13 -21 -18 -103 -26 -112 -11 -3 5 1 23 10 40 19 37
39 41 25 4 -13 -33 -13 -34 6 -34 8 0 29 14 46 31 18 17 34 26 37 20 4 -6 12
-7 21 -1 8 6 23 10 34 10 15 0 17 -5 13 -30 -4 -16 -4 -30 -1 -30 17 0 46 25
59 51 22 41 37 27 19 -17 -22 -53 -8 -55 37 -6 54 57 71 56 49 -2 -11 -30 -10
-30 26 -14 20 10 40 40 82 128 60 126 85 131 27 5z m-415 -34 c0 -5 -7 -14
-15 -21 -12 -10 -15 -10 -15 2 0 8 3 18 7 21 9 10 23 9 23 -2z m1575 -66 c-39
-57 -68 -81 -85 -70 -6 3 -10 13 -10 22 0 15 -2 14 -18 0 -21 -19 -52 -23 -52
-7 0 7 -7 7 -20 0 -12 -6 -38 -10 -58 -8 -29 2 -38 8 -40 25 -6 40 73 85 93
53 11 -18 -16 -40 -47 -40 -35 0 -34 -23 1 -28 31 -5 71 24 83 59 15 43 32 37
23 -8 l-7 -38 34 33 c19 17 38 32 42 32 5 0 5 -17 1 -37 -7 -41 -8 -42 49 30
51 64 59 51 11 -18z"/>
<path d="M3696 2391 c-10 -11 -16 -28 -14 -38 3 -16 7 -14 31 11 15 16 27 33
27 37 0 16 -27 9 -44 -10z"/>
<path d="M3870 2379 c0 -5 5 -7 10 -4 6 3 10 8 10 11 0 2 -4 4 -10 4 -5 0 -10
-5 -10 -11z"/>
<path d="M3624 2259 c-134 -78 -150 -119 -48 -119 21 0 42 8 55 21 22 22 74
127 67 134 -2 3 -35 -14 -74 -36z"/>
<path d="M1242 2149 c-103 -12 -161 -28 -140 -40 24 -13 318 30 318 47 0 6
-96 2 -178 -7z"/>
<path d="M3270 2390 c-8 -5 -11 -12 -7 -16 4 -4 13 -2 19 4 15 15 7 24 -12 12z"/>
</g>
</svg>
